<svg width="1440" height="232" viewBox="0 0 1440 232" fill="none" xmlns="http://www.w3.org/2000/svg">
<g clip-path="url(#clip0_123_16694)">
<rect width="588" height="232" transform="matrix(-1 0 0 1 588 0)" fill="#232D3A" fill-opacity="0.05"/>
<g opacity="0.08">
<path fill-rule="evenodd" clip-rule="evenodd" d="M588 254H324V122H588V254Z" fill="white"/>
<path fill-rule="evenodd" clip-rule="evenodd" d="M588 122H324V-10H588V122Z" fill="#4D4D4D"/>
<path fill-rule="evenodd" clip-rule="evenodd" d="M456 -10V122H588L456 -10Z" fill="#979797"/>
<path fill-rule="evenodd" clip-rule="evenodd" d="M324 254H192V-10H324V254Z" fill="black"/>
<path fill-rule="evenodd" clip-rule="evenodd" d="M324 122C324 49.0985 264.901 -10 192 -10V254C264.901 254 324 194.901 324 122Z" fill="#979797"/>
<path fill-rule="evenodd" clip-rule="evenodd" d="M192 254H60V-10H192V254Z" fill="white"/>
<path d="M60 122H192L60 254V122Z" fill="#4D4D4D"/>
</g>
<g opacity="0.08">
<path fill-rule="evenodd" clip-rule="evenodd" d="M60 122H-204V-10H60V122Z" fill="black"/>
<path fill-rule="evenodd" clip-rule="evenodd" d="M60 254H-204V122H60V254Z" fill="#4D4D4D"/>
<path fill-rule="evenodd" clip-rule="evenodd" d="M-72 122V254H60L-72 122Z" fill="#979797"/>
</g>
</g>
<g clip-path="url(#clip1_123_16694)">
<rect width="264" height="232" transform="translate(588)" fill="#232D3A" fill-opacity="0.05"/>
<g opacity="0.08">
<path fill-rule="evenodd" clip-rule="evenodd" d="M852 254H588V122H852V254Z" fill="#979797"/>
<path fill-rule="evenodd" clip-rule="evenodd" d="M852 254C852 181.098 792.902 122 720 122H588V254H852Z" fill="#4D4D4D"/>
<path fill-rule="evenodd" clip-rule="evenodd" d="M588 122H852V-10H588V122Z" fill="white"/>
<path fill-rule="evenodd" clip-rule="evenodd" d="M720 122C647.098 122 588 62.9015 588 -10H852C852 62.9015 792.901 122 720 122Z" fill="black"/>
</g>
</g>
<g clip-path="url(#clip2_123_16694)">
<rect width="588" height="232" transform="translate(852)" fill="#232D3A" fill-opacity="0.05"/>
<g opacity="0.08">
<path fill-rule="evenodd" clip-rule="evenodd" d="M852 122H1116V-10H852V122Z" fill="black"/>
<path fill-rule="evenodd" clip-rule="evenodd" d="M852 254H1116V122H852V254Z" fill="#4D4D4D"/>
<path fill-rule="evenodd" clip-rule="evenodd" d="M984 122V254H852L984 122Z" fill="#979797"/>
<path fill-rule="evenodd" clip-rule="evenodd" d="M1116 386H1248V122H1116V386Z" fill="black"/>
<path fill-rule="evenodd" clip-rule="evenodd" d="M1116 254C1116 181.099 1175.1 122 1248 122V386C1175.1 386 1116 326.901 1116 254Z" fill="#979797"/>
<path fill-rule="evenodd" clip-rule="evenodd" d="M1248 386H1380V122H1248V386Z" fill="white"/>
<path fill-rule="evenodd" clip-rule="evenodd" d="M1380 122H1116V-10H1380V122Z" fill="#979797"/>
<path fill-rule="evenodd" clip-rule="evenodd" d="M1380 122C1380 49.098 1320.9 -10 1248 -10H1116V122H1380Z" fill="#4D4D4D"/>
</g>
<g opacity="0.08">
<path fill-rule="evenodd" clip-rule="evenodd" d="M1380 122H1644V-10H1380V122Z" fill="black"/>
<path fill-rule="evenodd" clip-rule="evenodd" d="M1380 254H1644V122H1380V254Z" fill="#4D4D4D"/>
<path fill-rule="evenodd" clip-rule="evenodd" d="M1512 122V254H1380L1512 122Z" fill="#979797"/>
</g>
</g>
<defs>
<clipPath id="clip0_123_16694">
<rect width="588" height="232" fill="white" transform="matrix(-1 0 0 1 588 0)"/>
</clipPath>
<clipPath id="clip1_123_16694">
<rect width="264" height="232" fill="white" transform="translate(588)"/>
</clipPath>
<clipPath id="clip2_123_16694">
<rect width="588" height="232" fill="white" transform="translate(852)"/>
</clipPath>
</defs>
</svg>
